<svg xmlns="http://www.w3.org/2000/svg" viewBox="0 0 42.39 42.39"><defs><style>.cls-1{fill:#fff;}.cls-2{fill:#202a44;}</style></defs><g id="Layer_2" data-name="Layer 2"><g id="Layer_1-2" data-name="Layer 1"><path class="cls-1" d="M21.2,42.39A21.2,21.2,0,1,0,0,21.2,21.19,21.19,0,0,0,21.2,42.39"/><path class="cls-2" d="M17.19,13.05a3.88,3.88,0,0,0-3.87,3.87v8.55a3.88,3.88,0,0,0,3.87,3.87h8a3.88,3.88,0,0,0,3.87-3.87V16.92a3.88,3.88,0,0,0-3.87-3.87Zm8,18.48h-8a6.07,6.07,0,0,1-6.06-6.06V16.92a6.07,6.07,0,0,1,6.06-6.06h8a6.07,6.07,0,0,1,6.06,6.06v8.55a6.07,6.07,0,0,1-6.06,6.06"/><path class="cls-2" d="M21.07,18.1a2.87,2.87,0,0,0-2,.82,3.17,3.17,0,0,0-.94,2.25,3.06,3.06,0,0,0,3.06,3.06,3.09,3.09,0,0,0,3.07-3.09A3,3,0,0,0,23.55,19a3.31,3.31,0,0,0-2.39-.9h-.09m.12,8.81a5.75,5.75,0,0,1-5.74-5.74A5.85,5.85,0,0,1,17.21,17a5.47,5.47,0,0,1,4-1.57,5.88,5.88,0,0,1,4.27,1.75,5.57,5.57,0,0,1,1.44,4,5.91,5.91,0,0,1-1.7,4,5.66,5.66,0,0,1-4,1.69"/><path class="cls-2" d="M27.85,15.72a1.24,1.24,0,1,1-1.23-1.23,1.24,1.24,0,0,1,1.23,1.23"/></g></g></svg>