<svg xmlns="http://www.w3.org/2000/svg" <g id="Layer_2" data-name="Layer 2"><g id="Layer_1-2" data-name="Layer 1"><g style="isolation:isolate"><path d="M15.22,8.33l2.64-3.21H1.35V.37H28.23L12.85,19.69,10.11,23.1H27.37v4.74H0Z" style="fill:#fff"/><path d="M32.64.37H56V5.26H38.21v5.48H54v4.59H38.21V23h18.2v4.87H32.64Z" style="fill:#fff"/><path d="M60.93,13.94A13.55,13.55,0,0,1,62,8.46a12.66,12.66,0,0,1,3.21-4.41,15.13,15.13,0,0,1,5.13-2.94A20.43,20.43,0,0,1,77.24,0,26.31,26.31,0,0,1,83.4.71a19.3,19.3,0,0,1,5.21,2.07L86,7a8.88,8.88,0,0,0-1.66-.85,15.64,15.64,0,0,0-2-.62,21.43,21.43,0,0,0-2.2-.4A18.84,18.84,0,0,0,77.94,5a15.78,15.78,0,0,0-4.76.66A10.37,10.37,0,0,0,69.65,7.5a7.9,7.9,0,0,0-2.18,2.83,8.73,8.73,0,0,0-.74,3.61,8.85,8.85,0,0,0,.77,3.74,8.36,8.36,0,0,0,2.24,2.95,10.72,10.72,0,0,0,3.59,1.93,15.42,15.42,0,0,0,4.79.7,16.19,16.19,0,0,0,2.41-.18,21.47,21.47,0,0,0,2.31-.48A18.77,18.77,0,0,0,85,21.86a17.32,17.32,0,0,0,1.93-.94l2.57,4.22a19.1,19.1,0,0,1-5.2,2.26,23.64,23.64,0,0,1-6.28.81,22.66,22.66,0,0,1-7.43-1.1,15.32,15.32,0,0,1-5.35-3A12.34,12.34,0,0,1,62,19.56,14.58,14.58,0,0,1,60.93,13.94Z" style="fill:#fff"/><path d="M94,13.94a13.55,13.55,0,0,1,1.1-5.48,12.66,12.66,0,0,1,3.21-4.41,15.13,15.13,0,0,1,5.13-2.94A20.39,20.39,0,0,1,110.27,0a26.31,26.31,0,0,1,6.16.67,19.3,19.3,0,0,1,5.21,2.07L119.07,7a8.88,8.88,0,0,0-1.66-.85,15.64,15.64,0,0,0-2-.62,21.43,21.43,0,0,0-2.2-.4A18.84,18.84,0,0,0,111,5a15.78,15.78,0,0,0-4.76.66,10.37,10.37,0,0,0-3.53,1.85,7.9,7.9,0,0,0-2.18,2.83,8.57,8.57,0,0,0-.74,3.61,8.85,8.85,0,0,0,.77,3.74,8.25,8.25,0,0,0,2.24,2.95,10.62,10.62,0,0,0,3.59,1.93,15.42,15.42,0,0,0,4.79.7,16,16,0,0,0,2.4-.18,21.16,21.16,0,0,0,2.32-.48,18.77,18.77,0,0,0,2.15-.74,17.32,17.32,0,0,0,1.93-.94l2.57,4.22a19.1,19.1,0,0,1-5.2,2.26,23.64,23.64,0,0,1-6.28.81,22.66,22.66,0,0,1-7.43-1.1,15.32,15.32,0,0,1-5.35-3A12.34,12.34,0,0,1,95,19.56,14.58,14.58,0,0,1,94,13.94Z" style="fill:#fff"/><path d="M127,14a14,14,0,0,1,1.14-5.7,12.91,12.91,0,0,1,3.21-4.44,14.65,14.65,0,0,1,5-2.87,20.62,20.62,0,0,1,12.81,0,14.74,14.74,0,0,1,5,2.87,13,13,0,0,1,3.2,4.44,13.79,13.79,0,0,1,1.15,5.7,14,14,0,0,1-1.15,5.74,13.21,13.21,0,0,1-3.2,4.49,14.68,14.68,0,0,1-5,2.92,20.06,20.06,0,0,1-12.81,0,14.59,14.59,0,0,1-5-2.92,13.11,13.11,0,0,1-3.21-4.49A14.21,14.21,0,0,1,127,14Zm5.57,0a9.26,9.26,0,0,0,.76,3.83,8.38,8.38,0,0,0,2.13,2.91,9.56,9.56,0,0,0,3.22,1.85,12.85,12.85,0,0,0,8.07,0,9.47,9.47,0,0,0,3.2-1.85,8.38,8.38,0,0,0,2.13-2.91,9.1,9.1,0,0,0,.77-3.83,9,9,0,0,0-.77-3.82A8.15,8.15,0,0,0,150,7.36a9.35,9.35,0,0,0-3.2-1.79,13.65,13.65,0,0,0-8.07,0,9.44,9.44,0,0,0-3.22,1.79,8.15,8.15,0,0,0-2.13,2.85A9.18,9.18,0,0,0,132.61,14Z" /></g></g></g></svg>