<svg xmlns="http://www.w3.org/2000/svg" viewBox="0 0 42.39 42.39"><defs><style>.cls-1{fill:#fff;}.cls-2{fill:#202a44;}</style></defs><g id="Layer_2" data-name="Layer 2"><g id="Layer_1-2" data-name="Layer 1"><path class="cls-1" d="M21.2,42.39A21.2,21.2,0,1,0,0,21.2,21.19,21.19,0,0,0,21.2,42.39"/><path class="cls-2" d="M30.7,13.08a8.06,8.06,0,0,1-2.62,1,4.09,4.09,0,0,0-3-1.34A4.19,4.19,0,0,0,20.94,17a4.37,4.37,0,0,0,.1,1,11.6,11.6,0,0,1-8.51-4.44A4.4,4.4,0,0,0,12,15.69a4.3,4.3,0,0,0,1.84,3.54,4.1,4.1,0,0,1-1.87-.53v.05a4.23,4.23,0,0,0,3.31,4.17,3.88,3.88,0,0,1-1.09.15,3.94,3.94,0,0,1-.77-.08,4.16,4.16,0,0,0,3.86,3,8.15,8.15,0,0,1-6.12,1.76,11.43,11.43,0,0,0,6.33,1.91c7.6,0,11.75-6.48,11.75-12.1,0-.19,0-.37,0-.55a8.52,8.52,0,0,0,2.06-2.21,8,8,0,0,1-2.37.67,4.24,4.24,0,0,0,1.81-2.35"/></g></g></svg>